<svg width="1440" height="376" viewBox="0 0 1440 376" fill="none" xmlns="http://www.w3.org/2000/svg" xmlns:xlink="http://www.w3.org/1999/xlink">
  <g clip-path="url(#clip0)">
    <path d="M960 320C975.913 320 991.174 326.321 1002.43 337.574C1013.68 348.826 1020 364.087 1020 380H1080C1080 348.174 1067.36 317.651 1044.85 295.147C1022.35 272.643 991.826 260 960 260C928.174 260 897.652 272.643 875.147 295.147C852.643 317.651 840 348.174 840 380H900C900 364.087 906.321 348.826 917.574 337.574C928.826 326.321 944.087 320 960 320Z" fill="#ffdd1d"/>
    <path d="M1284.13 96.5097C1294.15 84.8489 1308.24 77.5192 1323.31 76.1338C1330.87 75.4381 1338.36 76.2671 1345.38 78.4911C1352.14 80.6342 1355.52 81.7057 1356.09 81.8494C1365.62 84.2694 1368.55 83.4362 1375.39 76.3617C1375.8 75.9416 1376.8 74.7721 1378.81 72.433L1387.91 61.8378C1388.19 61.5178 1388.33 61.3579 1388.84 60.6365C1394.57 52.6367 1391.95 37.9724 1383.81 32.4476C1383.08 31.9494 1385.01 33.0221 1384.23 32.593C1364.94 21.8587 1342.58 17.0968 1319.93 19.1806C1289.79 21.9534 1261.6 36.6122 1241.56 59.9337C1221.52 83.2551 1211.27 113.328 1213.07 143.538C1214.41 166.247 1222.49 187.634 1236 205.096C1236.54 205.794 1235.19 204.049 1235.79 204.7C1242.48 211.916 1257.37 212.297 1264.42 205.432C1265.06 204.813 1265.19 204.653 1265.47 204.333L1274.57 193.738C1276.58 191.399 1277.59 190.23 1277.94 189.765C1283.91 181.942 1284.29 178.92 1280.46 169.857C1280.23 169.319 1278.67 166.138 1275.53 159.776C1272.28 153.174 1270.33 145.89 1269.88 138.312C1268.98 123.207 1274.11 108.17 1284.13 96.5097Z" fill="#f4b015"/>
    <rect y="-28" width="876" height="404" fill="url(#pattern0)"/>
  </g>
  <defs>
    <clipPath id="clip0">
      <rect width="1440" height="376" fill="white"/>
    </clipPath>
  </defs>
</svg>
