<svg width="53" height="167" viewBox="0 0 53 167" fill="none" xmlns="http://www.w3.org/2000/svg">
<path d="M9.93621 88.5452C7.598 99.7181 1.05918 109.538 -8.24825 115.849C-12.9172 119.015 -18.0871 121.165 -23.4514 122.241C-28.6176 123.275 -31.2007 123.793 -31.623 123.904C-38.6906 125.753 -40.2981 127.346 -42.2117 134.398C-42.3278 134.818 -42.5591 135.937 -43.0282 138.178L-45.1499 148.328C-45.2173 148.637 -45.251 148.791 -45.3242 149.443C-46.184 156.697 -39.2222 165.283 -31.9459 165.95C-31.2923 166.012 -32.9325 166.008 -32.2712 166.007C-15.8733 166.055 0.380617 161.121 14.369 151.636C32.9831 139.014 46.0674 119.37 50.7439 97.0244C55.4204 74.6787 51.3074 51.4614 39.3057 32.4812C30.2925 18.2091 17.3684 7.21547 2.3189 0.721234C1.71735 0.461634 3.2212 1.11065 2.59747 0.903122C-4.34187 -1.3831 -14.1655 3.71504 -16.2908 10.706C-16.4853 11.3379 -16.5124 11.4885 -16.5799 11.7969L-18.7016 21.9471C-19.1707 24.1883 -19.4087 25.3104 -19.4697 25.7381C-20.549 32.9637 -19.7128 35.0635 -13.9719 39.5764C-13.6294 39.8433 -11.4742 41.3499 -7.15052 44.3558C-2.66928 47.4781 1.21074 51.5102 4.22029 56.2718C10.2211 65.7619 12.2746 77.3726 9.93621 88.5452Z" fill="#F4B015"/>
</svg>
